<svg xmlns="http://www.w3.org/2000/svg" width="800" height="800" viewBox="0 0 800 800">
  <rect width="800" height="800" fill="#0a0a12"/>
  <circle cx="400" cy="400" r="60" fill="none" stroke="#4ea8f0" stroke-width="2"/>
  <circle cx="400" cy="400" r="80" fill="none" stroke="#4ea8f0" stroke-width="1" opacity="0.5"/>
  <circle cx="400" cy="400" r="100" fill="none" stroke="#4ea8f0" stroke-width="0.5" opacity="0.25"/>
  <circle cx="230" cy="260" r="18" fill="#7c6af7"/>
  <circle cx="570" cy="260" r="18" fill="#7c6af7"/>
  <circle cx="180" cy="440" r="18" fill="#7c6af7"/>
  <circle cx="620" cy="440" r="18" fill="#7c6af7"/>
  <circle cx="320" cy="580" r="18" fill="#7c6af7"/>
  <circle cx="200" cy="340" r="12" fill="#3ec9a7"/>
  <circle cx="300" cy="200" r="12" fill="#3ec9a7"/>
  <circle cx="500" cy="200" r="12" fill="#3ec9a7"/>
  <circle cx="600" cy="340" r="12" fill="#3ec9a7"/>
  <circle cx="160" cy="520" r="12" fill="#3ec9a7"/>
  <circle cx="480" cy="580" r="12" fill="#3ec9a7"/>
  <polygon points="400,280 412,300 388,300" fill="#f0a040"/>
  <polygon points="520,360 532,380 508,380" fill="#f0a040"/>
  <polygon points="280,360 292,380 268,380" fill="#f0a040"/>
  <circle cx="340" cy="480" r="16" fill="none" stroke="#e05c7a" stroke-width="2"/>
  <circle cx="340" cy="480" r="22" fill="none" stroke="#e05c7a" stroke-width="1" opacity="0.5"/>
  <circle cx="460" cy="480" r="16" fill="none" stroke="#e05c7a" stroke-width="2"/>
  <circle cx="460" cy="480" r="22" fill="none" stroke="#e05c7a" stroke-width="1" opacity="0.5"/>
  <text x="400" y="700" text-anchor="middle" fill="#4ea8f0" font-family="monospace" font-size="18">AgentRAG</text>
  <text x="400" y="725" text-anchor="middle" fill="#888" font-family="monospace" font-size="12">Base Intelligence v1 · ERC-8004</text>
</svg>
